<svg xmlns="http://www.w3.org/2000/svg" width="720" height="794" viewBox="0 0 720 794" font-family="system-ui, -apple-system, 'Segoe UI', Roboto, sans-serif" role="img" aria-label="What each optimization is worth">
<rect width="720" height="794" rx="8" fill="#fcfcfb"/>
<text x="24" y="34" font-size="17" font-weight="600" fill="#0b0b0b">What each optimization is worth</text>
<text x="24" y="56" font-size="13" fill="#52514e">Median milliseconds with one optimization switched off, lower is better</text>
<text x="24" y="98" font-size="13" font-weight="600" fill="#0b0b0b">BERT, bge-small-en-v1.5: 8 sequences x 128 tokens</text>
<path d="M150,119.0 h320.4 a4,4 0 0 1 4,4 v12 a4,4 0 0 1 -4,4 h-320.4 z" fill="#2a78d6"><title>everything: 117.1 ms</title></path>
<text x="138" y="133.0" font-size="13" fill="#0b0b0b" text-anchor="end">everything</text>
<text x="482.4" y="133.0" font-size="13" font-weight="600" fill="#0b0b0b">117.1 <tspan font-weight="400" fill="#52514e">ms</tspan></text>
<path d="M150,149.0 h414.0 a4,4 0 0 1 4,4 v12 a4,4 0 0 1 -4,4 h-414.0 z" fill="#9ec5f4"><title>no fusion at all: 150.9 ms</title></path>
<text x="138" y="163.0" font-size="13" fill="#0b0b0b" text-anchor="end">no fusion at all</text>
<text x="576.0" y="163.0" font-size="13" font-weight="600" fill="#0b0b0b">150.9 <tspan font-weight="400" fill="#52514e">ms</tspan></text>
<path d="M150,179.0 h322.4 a4,4 0 0 1 4,4 v12 a4,4 0 0 1 -4,4 h-322.4 z" fill="#9ec5f4"><title>no epilogue fusion: 117.9 ms</title></path>
<text x="138" y="193.0" font-size="13" fill="#0b0b0b" text-anchor="end">no epilogue fusion</text>
<text x="484.4" y="193.0" font-size="13" font-weight="600" fill="#0b0b0b">117.9 <tspan font-weight="400" fill="#52514e">ms</tspan></text>
<path d="M150,209.0 h330.1 a4,4 0 0 1 4,4 v12 a4,4 0 0 1 -4,4 h-330.1 z" fill="#9ec5f4"><title>no row fusion: 120.7 ms</title></path>
<text x="138" y="223.0" font-size="13" fill="#0b0b0b" text-anchor="end">no row fusion</text>
<text x="492.1" y="223.0" font-size="13" font-weight="600" fill="#0b0b0b">120.7 <tspan font-weight="400" fill="#52514e">ms</tspan></text>
<path d="M150,239.0 h366.4 a4,4 0 0 1 4,4 v12 a4,4 0 0 1 -4,4 h-366.4 z" fill="#9ec5f4"><title>no batch folding: 133.7 ms</title></path>
<text x="138" y="253.0" font-size="13" fill="#0b0b0b" text-anchor="end">no batch folding</text>
<text x="528.4" y="253.0" font-size="13" font-weight="600" fill="#0b0b0b">133.7 <tspan font-weight="400" fill="#52514e">ms</tspan></text>
<path d="M150,269.0 h424.6 a4,4 0 0 1 4,4 v12 a4,4 0 0 1 -4,4 h-424.6 z" fill="#9ec5f4"><title>no tuning: 154.8 ms</title></path>
<text x="138" y="283.0" font-size="13" fill="#0b0b0b" text-anchor="end">no tuning</text>
<text x="586.6" y="283.0" font-size="13" font-weight="600" fill="#0b0b0b">154.8 <tspan font-weight="400" fill="#52514e">ms</tspan></text>
<text x="24" y="326" font-size="13" font-weight="600" fill="#0b0b0b">SmolLM2-135M: 128-token prefill</text>
<path d="M150,347.0 h345.8 a4,4 0 0 1 4,4 v12 a4,4 0 0 1 -4,4 h-345.8 z" fill="#2a78d6"><title>everything: 115.9 ms</title></path>
<text x="138" y="361.0" font-size="13" fill="#0b0b0b" text-anchor="end">everything</text>
<text x="507.8" y="361.0" font-size="13" font-weight="600" fill="#0b0b0b">115.9 <tspan font-weight="400" fill="#52514e">ms</tspan></text>
<path d="M150,377.0 h370.4 a4,4 0 0 1 4,4 v12 a4,4 0 0 1 -4,4 h-370.4 z" fill="#9ec5f4"><title>no fusion at all: 124.0 ms</title></path>
<text x="138" y="391.0" font-size="13" fill="#0b0b0b" text-anchor="end">no fusion at all</text>
<text x="532.4" y="391.0" font-size="13" font-weight="600" fill="#0b0b0b">124.0 <tspan font-weight="400" fill="#52514e">ms</tspan></text>
<path d="M150,407.0 h342.4 a4,4 0 0 1 4,4 v12 a4,4 0 0 1 -4,4 h-342.4 z" fill="#9ec5f4"><title>no epilogue fusion: 114.7 ms</title></path>
<text x="138" y="421.0" font-size="13" fill="#0b0b0b" text-anchor="end">no epilogue fusion</text>
<text x="504.4" y="421.0" font-size="13" font-weight="600" fill="#0b0b0b">114.7 <tspan font-weight="400" fill="#52514e">ms</tspan></text>
<path d="M150,437.0 h346.1 a4,4 0 0 1 4,4 v12 a4,4 0 0 1 -4,4 h-346.1 z" fill="#9ec5f4"><title>no row fusion: 116.0 ms</title></path>
<text x="138" y="451.0" font-size="13" fill="#0b0b0b" text-anchor="end">no row fusion</text>
<text x="508.1" y="451.0" font-size="13" font-weight="600" fill="#0b0b0b">116.0 <tspan font-weight="400" fill="#52514e">ms</tspan></text>
<path d="M150,467.0 h327.3 a4,4 0 0 1 4,4 v12 a4,4 0 0 1 -4,4 h-327.3 z" fill="#9ec5f4"><title>no batch folding: 109.7 ms</title></path>
<text x="138" y="481.0" font-size="13" fill="#0b0b0b" text-anchor="end">no batch folding</text>
<text x="489.3" y="481.0" font-size="13" font-weight="600" fill="#0b0b0b">109.7 <tspan font-weight="400" fill="#52514e">ms</tspan></text>
<path d="M150,497.0 h424.6 a4,4 0 0 1 4,4 v12 a4,4 0 0 1 -4,4 h-424.6 z" fill="#9ec5f4"><title>no tuning: 141.9 ms</title></path>
<text x="138" y="511.0" font-size="13" fill="#0b0b0b" text-anchor="end">no tuning</text>
<text x="586.6" y="511.0" font-size="13" font-weight="600" fill="#0b0b0b">141.9 <tspan font-weight="400" fill="#52514e">ms</tspan></text>
<text x="24" y="554" font-size="13" font-weight="600" fill="#0b0b0b">MLP: 4 pre-norm GELU blocks, 64 x 512</text>
<path d="M150,575.0 h299.7 a4,4 0 0 1 4,4 v12 a4,4 0 0 1 -4,4 h-299.7 z" fill="#2a78d6"><title>everything: 2.7 ms</title></path>
<text x="138" y="589.0" font-size="13" fill="#0b0b0b" text-anchor="end">everything</text>
<text x="461.7" y="589.0" font-size="13" font-weight="600" fill="#0b0b0b">2.7 <tspan font-weight="400" fill="#52514e">ms</tspan></text>
<path d="M150,605.0 h367.8 a4,4 0 0 1 4,4 v12 a4,4 0 0 1 -4,4 h-367.8 z" fill="#9ec5f4"><title>no fusion at all: 3.3 ms</title></path>
<text x="138" y="619.0" font-size="13" fill="#0b0b0b" text-anchor="end">no fusion at all</text>
<text x="529.8" y="619.0" font-size="13" font-weight="600" fill="#0b0b0b">3.3 <tspan font-weight="400" fill="#52514e">ms</tspan></text>
<path d="M150,635.0 h327.2 a4,4 0 0 1 4,4 v12 a4,4 0 0 1 -4,4 h-327.2 z" fill="#9ec5f4"><title>no epilogue fusion: 3.0 ms</title></path>
<text x="138" y="649.0" font-size="13" fill="#0b0b0b" text-anchor="end">no epilogue fusion</text>
<text x="489.2" y="649.0" font-size="13" font-weight="600" fill="#0b0b0b">3.0 <tspan font-weight="400" fill="#52514e">ms</tspan></text>
<path d="M150,665.0 h321.5 a4,4 0 0 1 4,4 v12 a4,4 0 0 1 -4,4 h-321.5 z" fill="#9ec5f4"><title>no row fusion: 2.9 ms</title></path>
<text x="138" y="679.0" font-size="13" fill="#0b0b0b" text-anchor="end">no row fusion</text>
<text x="483.5" y="679.0" font-size="13" font-weight="600" fill="#0b0b0b">2.9 <tspan font-weight="400" fill="#52514e">ms</tspan></text>
<path d="M150,695.0 h360.0 a4,4 0 0 1 4,4 v12 a4,4 0 0 1 -4,4 h-360.0 z" fill="#9ec5f4"><title>no batch folding: 3.3 ms</title></path>
<text x="138" y="709.0" font-size="13" fill="#0b0b0b" text-anchor="end">no batch folding</text>
<text x="522.0" y="709.0" font-size="13" font-weight="600" fill="#0b0b0b">3.3 <tspan font-weight="400" fill="#52514e">ms</tspan></text>
<path d="M150,725.0 h424.6 a4,4 0 0 1 4,4 v12 a4,4 0 0 1 -4,4 h-424.6 z" fill="#9ec5f4"><title>no tuning: 3.8 ms</title></path>
<text x="138" y="739.0" font-size="13" fill="#0b0b0b" text-anchor="end">no tuning</text>
<text x="586.6" y="739.0" font-size="13" font-weight="600" fill="#0b0b0b">3.8 <tspan font-weight="400" fill="#52514e">ms</tspan></text>
<text x="24" y="780" font-size="12" fill="#52514e">Each bar switches off one pass (fusion: all three of epilogue, row and inline fusion).</text>
</svg>